# xmcd
#
# Track frame offsets:
#	150
#	18216
#	38494
#	52079
#	66274
#	83305
#	101712
#	125874
#	141297
#	159037
#	176502
#	198967
#	217662
#	231422
#
# Disc length: 3291 seconds
#
# Revision: 0
# Processed by: cddbd v1.5.2PL0 Copyright (c) Steve Scherf et al.
# Submitted via: dBpowerAMP V4.0
#
DISCID=b30cd90e
DTITLE=country Stew - country is calling
DYEAR=1900
DGENRE=
TTITLE0=Country Is Calling -
TTITLE1=Peaceful Easy Feeling
TTITLE2=Little Old Wine Drinker
TTITLE3=He Drinks Tequila
TTITLE4=Dream Walkin'
TTITLE5=Shut Up And Drive
TTITLE6=Amazing Grace
TTITLE7=Jackson
TTITLE8=Seven Spanish Angels
TTITLE9=Come On Sheila
TTITLE10=On The Road
TTITLE11=Margeritaville
TTITLE12=Livin' On Borrowed Time
TTITLE13=Take It Easy
EXTD=www.countrystew.ch
EXTT0=
EXTT1=
EXTT2=
EXTT3=
EXTT4=
EXTT5=
EXTT6=
EXTT7=
EXTT8=
EXTT9=
EXTT10=
EXTT11=
EXTT12=
EXTT13=
PLAYORDER=
